<svg id="Layer_1" data-name="Layer 1" xmlns="http://www.w3.org/2000/svg" viewBox="0 0 300 300"><defs><style>.cls-1{fill:#f3c7d2;}.cls-2{fill:#d01e4b;}.cls-3{fill:#71c285;}.cls-4{fill:#fff;}</style></defs><title>suppliers</title><circle class="cls-1" cx="149.62" cy="149.77" r="150"/><circle class="cls-2" cx="149.62" cy="149.77" r="130"/><path class="cls-3" d="M209.93,133.51v-0.22s0,0,0,.07S209.93,133.46,209.93,133.51Z"/><rect class="cls-4" x="74" y="114" width="107" height="52" rx="1.98" ry="1.98"/><path class="cls-4" d="M179.77,173.49a1.36,1.36,0,0,0-1.39-1.32H131.16a1.36,1.36,0,0,0-1.39,1.32V179a1.36,1.36,0,0,0,1.39,1.32h47.21a1.36,1.36,0,0,0,1.39-1.32v-5.54Z"/><circle class="cls-4" cx="210.72" cy="180.7" r="8.36"/><circle class="cls-4" cx="115.31" cy="180.7" r="8.36"/><circle class="cls-4" cx="90.94" cy="180.7" r="8.36"/><path class="cls-4" d="M235.24,154.23S217.07,148,217,148H204.66a0.66,0.66,0,0,1-.66-0.66V135.66a0.66,0.66,0,0,1,.66-0.66H214.8a0.32,0.32,0,0,0,.32-0.35L214.87,132a2,2,0,0,0-2-2H189a2,2,0,0,0-2,2v45.77a1.27,1.27,0,0,0,1.27,1.27h9.34c0.52,0,1.38.24,1.38-.29v0c0-6,5.26-10.87,12-10.87s12,4.45,12.13,10.36a0.85,0.85,0,0,0,.86.82h12.14a0.85,0.85,0,0,0,.85-0.85v-22A2.55,2.55,0,0,0,235.24,154.23Z"/></svg>