<svg id="Layer_1" data-name="Layer 1" xmlns="http://www.w3.org/2000/svg" viewBox="0 0 300 300"><defs><style>.cls-1{fill:#e8d0ec;}.cls-2{fill:#a245b4;}.cls-3{fill:#fff;}</style></defs><title>order guides</title><circle class="cls-1" cx="150" cy="150" r="150"/><circle class="cls-2" cx="150.02" cy="149.88" r="130"/><path class="cls-3" d="M541,437.14A12.14,12.14,0,0,0,528.85,425H443.15A12.14,12.14,0,0,0,431,437.14v97.71A12.14,12.14,0,0,0,443.15,547h85.71A12.14,12.14,0,0,0,541,534.86V437.14ZM436,489h28v16H436V489Zm33,0h36v16H469V489Zm0-3V469h36v17H469Zm0-22V450h36v14H469Zm39-14h27v14H508V450Zm-44,0v14H436V450h28Zm0,19v17H436V469h28Zm-28,42h28v14H436V511Zm33,0h36v14H469V511Zm39,0h27v14H508V511Zm0-6V489h27v16H508Zm0-19V469h27v17H508Zm19.1,56H442.63c-3.92,0-6.63-3.23-6.63-7.15V530h99v4.85C535,538.77,531,542,527.1,542Z" transform="translate(-335.98 -336.12)"/></svg>