<svg id="Layer_1" data-name="Layer 1" xmlns="http://www.w3.org/2000/svg" viewBox="0 0 300 300"><defs><style>.cls-1{fill:#c7f1e9;}.cls-2{fill:#1fc7a9;}.cls-3,.cls-5{fill:none;}.cls-4{fill:#fff;}.cls-5{stroke:#1fc7a9;stroke-miterlimit:10;stroke-width:4px;}</style></defs><title>manage orders</title><circle class="cls-1" cx="150.28" cy="149.77" r="150"/><circle class="cls-2" cx="150.28" cy="149.77" r="130"/><circle class="cls-3" cx="119.5" cy="132.19" r="5.48"/><circle class="cls-3" cx="119.5" cy="192.73" r="5.48"/><rect class="cls-3" x="139" y="189" width="48" height="6"/><circle class="cls-3" cx="119.5" cy="162.46" r="5.48"/><rect class="cls-3" x="139" y="127" width="48" height="7"/><rect class="cls-3" x="139" y="158" width="48" height="6"/><path class="cls-4" d="M119.24,103.76h61.93a2.43,2.43,0,0,0,2.43-2.43V94.71a2.43,2.43,0,0,0-2.43-2.43H171.08V81.14a2.43,2.43,0,0,0-2.43-2.43H131.76a2.43,2.43,0,0,0-2.43,2.43V91.23H119.24a2.43,2.43,0,0,0-2.43,2.43v7.66A2.43,2.43,0,0,0,119.24,103.76Z"/><path class="cls-4" d="M201.21,95.41H190.4a1.32,1.32,0,0,0-1.32,1.32v12.13a1.16,1.16,0,0,1-1.16,1.16H112.06a1.26,1.26,0,0,1-1.26-1.26v-12a1.32,1.32,0,0,0-1.32-1.32h-8.72a3.52,3.52,0,0,0-3.52,3.52V214a3.52,3.52,0,0,0,3.52,3.52H201.64a3.09,3.09,0,0,0,3.09-3.09V98.93A3.52,3.52,0,0,0,201.21,95.41ZM165.23,196H111v-6h54.25v6ZM165,166H111v-6h54v6Zm0-30H111v-7h54v7Z"/><polyline class="cls-5" points="174.59 131.74 181.05 137 193.17 123.5"/><polyline class="cls-5" points="174.59 161.74 181.05 167 193.17 153.5"/><polyline class="cls-5" points="174.59 191.74 181.05 197 193.17 183.5"/></svg>