<?xml version="1.0" encoding="UTF-8"?>
<svg width="301px" height="301px" viewBox="0 0 301 301" version="1.1" xmlns="http://www.w3.org/2000/svg" xmlns:xlink="http://www.w3.org/1999/xlink">
    <!-- Generator: Sketch 42 (36781) - http://www.bohemiancoding.com/sketch -->
    <title>orders</title>
    <desc>Created with Sketch.</desc>
    <defs></defs>
    <g id="Page-1" stroke="none" stroke-width="1" fill="none" fill-rule="evenodd">
        <g id="orders">
            <circle id="Oval" fill="#0084FF" fill-rule="nonzero" opacity="0.4" cx="150.28" cy="150.77" r="150"></circle>
            <circle id="Oval" fill="#0084FF" fill-rule="nonzero" cx="150.28" cy="150.77" r="130"></circle>
            <circle id="Oval" cx="119.5" cy="133.19" r="5.48"></circle>
            <circle id="Oval" cx="119.5" cy="193.73" r="5.48"></circle>
            <circle id="Oval" cx="119.5" cy="163.46" r="5.48"></circle>
            <g id="noun_755412_cc" transform="translate(49.000000, 66.000000)" fill-rule="nonzero" fill="#FFFFFF">
                <g id="Group">
                    <path d="M84.2608825,132.283028 L84.2608825,117.097444 C84.2608825,117.097444 66.9319537,115.917861 56.9451975,110.166875 L61.937545,90.9996806 C61.937545,90.9996806 88.0783175,104.711819 101.295052,94.0955694 C101.295052,94.0955694 112.60307,83.1854583 89.25323,74.928375 C89.25323,74.928375 65.7570412,68.2937361 60.3235862,55.3183194 C60.3235862,55.3183194 47.8406562,23.7655 85.1430975,15.8043472 L84.9967487,0.175902778 L100.709657,0.175902778 L100.856006,14.7716944 C100.856006,14.7716944 114.660197,14.3288333 124.352195,19.9328889 L119.652545,37.9205 C119.652545,37.9205 98.2114225,27.6001806 85.1410362,35.5613333 C85.1410362,35.5613333 73.9793675,45.5877917 98.65253,54.4325972 C98.65253,54.4325972 130.080409,61.8039583 128.757086,84.9527639 C128.757086,84.9527639 130.373106,110.458667 100.266489,115.766792 L100.266489,132.280958 L84.2608825,132.280958 L84.2608825,132.283028 Z M44.5096762,144.817653 L40.40985,136.697153 C53.8966087,126.552736 46.7688062,114.413375 46.7688062,114.413375 C41.671335,102.69825 24.3856925,106.938542 24.3856925,106.938542 C10.0558825,108.761722 13.0550012,101.038556 13.0550012,101.038556 C17.50524,93.851375 30.6127287,93.5616528 30.6127287,93.5616528 L28.4566612,83.5393333 C22.2997075,83.2102917 15.6212575,86.8814861 15.6212575,86.8814861 L11.9254362,79.7398333 L4.19781,83.6717778 L8.1512875,91.3204444 C-8.2150375,104.573167 5.756115,116.965 5.756115,116.965 C11.6492287,121.985472 24.851535,119.367625 24.851535,119.367625 C38.3836412,117.583764 35.5329325,125.778764 35.5329325,125.778764 C31.6680887,134.306944 15.4089487,134.106208 15.4089487,134.106208 L17.7134262,144.782472 C24.05177,145.111514 32.865675,141.353403 32.865675,141.353403 L36.6357012,148.822028 L44.5096762,144.817653 Z M154.432016,148.822028 L159.195565,137.744292 C181.924969,143.371111 188.145821,125.766347 188.145821,125.766347 C195.753895,110.640778 175.751525,96.1029306 175.751525,96.1029306 C160.931137,82.639125 171.682617,79.3197361 171.682617,79.3197361 C183.182331,77.9683889 195.302481,91.4342639 195.302481,91.4342639 L203.801015,80.8014583 C198.592236,74.0840417 188.743584,70.1686528 188.743584,70.1686528 L192.851655,60.3325833 L181.786865,55.5376806 L177.381974,66.0670139 C148.819232,60.0242361 148.507984,85.0003611 148.507984,85.0003611 C148.590434,95.3620694 163.223247,106.986139 163.223247,106.986139 C177.283034,119.651139 166.172896,123.518931 166.172896,123.518931 C153.803335,126.606542 139.351911,109.430153 139.351911,109.430153 L130.307146,120.7645 C135.680825,127.670236 147.541257,133.750264 147.541257,133.750264 L143.161101,143.938139 L154.432016,148.822028 Z" id="Shape"></path>
                </g>
            </g>
        </g>
    </g>
</svg>