<svg id="Layer_1" data-name="Layer 1" xmlns="http://www.w3.org/2000/svg" viewBox="0 0 300 300"><defs><style>.cls-1{fill:#c2e9f7;}.cls-2{fill:#0ba5de;}.cls-3{fill:none;}.cls-4{fill:#fff;}</style></defs><title>placing orders</title><circle class="cls-1" cx="149.98" cy="150.12" r="150"/><circle class="cls-2" cx="149.98" cy="150.12" r="130"/><circle class="cls-3" cx="118.5" cy="134.19" r="5.48"/><circle class="cls-3" cx="118.5" cy="194.73" r="5.48"/><rect class="cls-3" x="138" y="191" width="48" height="6"/><circle class="cls-3" cx="118.5" cy="164.46" r="5.48"/><rect class="cls-3" x="138" y="129" width="48" height="7"/><rect class="cls-3" x="138" y="160" width="48" height="6"/><path class="cls-4" d="M118.24,105.76h61.93a2.43,2.43,0,0,0,2.43-2.43V96.71a2.43,2.43,0,0,0-2.43-2.43H170.08V83.14a2.43,2.43,0,0,0-2.43-2.43H130.76a2.43,2.43,0,0,0-2.43,2.43V93.23H118.24a2.43,2.43,0,0,0-2.43,2.43v7.66A2.43,2.43,0,0,0,118.24,105.76Z"/><path class="cls-4" d="M200.21,97.41H189.4a1.32,1.32,0,0,0-1.32,1.32v12.13a1.16,1.16,0,0,1-1.16,1.16H111.06a1.26,1.26,0,0,1-1.26-1.26v-12a1.32,1.32,0,0,0-1.32-1.32H99.75a3.52,3.52,0,0,0-3.52,3.52V216a3.52,3.52,0,0,0,3.52,3.52H200.64a3.09,3.09,0,0,0,3.09-3.09V100.93A3.52,3.52,0,0,0,200.21,97.41Zm-82.49,102.8a5.48,5.48,0,1,1,5.48-5.48A5.48,5.48,0,0,1,117.72,200.21Zm0-30.27a5.48,5.48,0,1,1,5.48-5.48A5.48,5.48,0,0,1,117.72,169.94Zm0-30.27a5.48,5.48,0,1,1,5.48-5.48A5.48,5.48,0,0,1,117.72,139.67ZM185,198H136v-6h49v6Zm0-31H136v-6h49v6Zm0-29H136v-7h49v7Z"/></svg>