<svg id="Layer_1" data-name="Layer 1" xmlns="http://www.w3.org/2000/svg" viewBox="0 0 300 300"><defs><style>.cls-1{fill:#fbd8e8;}.cls-2{fill:#ef64a4;}.cls-3{fill:#fff;}</style></defs><title>analytics</title><circle class="cls-1" cx="150" cy="150" r="150"/><circle class="cls-2" cx="151" cy="150.19" r="130"/><path class="cls-3" d="M890.1,145.28l-9.4-45.42c0-.06,0-0.11-0.05-0.16a5.45,5.45,0,0,0-.23-0.72c0-.08-0.06-0.17-0.1-0.25a5.47,5.47,0,0,0-.45-0.83l0,0-0.06-.07a5.46,5.46,0,0,0-.58-0.68L879.05,97a5.45,5.45,0,0,0-.63-0.5l-0.15-.1a5.46,5.46,0,0,0-1.83-.75l-0.16,0a5.45,5.45,0,0,0-.82-0.08h-0.24a5.45,5.45,0,0,0-.89.09h-0.15L830.32,105a5.48,5.48,0,0,0,2.3,10.72l30.61-6.56L825.59,165.3l-15.12-25a5.48,5.48,0,0,0-8.87-.71l-47.93,56.47a5.48,5.48,0,1,0,8.36,7.09l43-50.66,15.63,25.81a5.48,5.48,0,0,0,4.56,2.64,5.4,5.4,0,0,0,4.68-2.43l42.7-63.68,6.75,32.63a5.48,5.48,0,0,0,5.36,4.37,5.58,5.58,0,0,0,1.12-.11A5.48,5.48,0,0,0,890.1,145.28Z" transform="translate(-671 -0.12)"/></svg>