<svg id="Layer_1" data-name="Layer 1" xmlns="http://www.w3.org/2000/svg" viewBox="0 0 300 300"><defs><style>.cls-1{fill:#fbdcc8;}.cls-2{fill:#ef7222;}.cls-3{fill:none;}.cls-4{fill:#fff;}</style></defs><title>inventory</title><circle class="cls-1" cx="148.35" cy="149.71" r="150"/><circle class="cls-2" cx="148.35" cy="149.71" r="130"/><circle class="cls-3" cx="166.78" cy="195.1" r="5.57"/><path class="cls-4" d="M215.83,93.41a3.92,3.92,0,0,0-5.49-.7l-20.06,15.55a3.92,3.92,0,0,0-1.34,1.94L170,171.84a3.92,3.92,0,1,0,7.49,2.3l18.56-60.45,19.08-14.79A3.92,3.92,0,0,0,215.83,93.41Z"/><path class="cls-4" d="M166.78,181.7a13.4,13.4,0,1,0,13.4,13.4A13.42,13.42,0,0,0,166.78,181.7Zm0,19a5.57,5.57,0,1,1,5.57-5.57A5.58,5.58,0,0,1,166.78,200.67Z"/><path class="cls-4" d="M144.59,187L85.08,169.24a3.92,3.92,0,0,0-2.24,7.5l59.52,17.75A3.92,3.92,0,0,0,144.59,187Z"/><path class="cls-4" d="M157.87,177.9l19.75-65.11a2.83,2.83,0,0,0-1.89-3.53L151.68,102a0.1,0.1,0,0,0-.13.07L146,120.4l-16.79-5.09,5.57-18.37a0.1,0.1,0,0,0-.07-0.13l-24.06-7.3a2.83,2.83,0,0,0-3.53,1.89L87.35,156.5A2.83,2.83,0,0,0,89.24,160l65.11,19.75A2.83,2.83,0,0,0,157.87,177.9Z"/></svg>