<svg id="Layer_1" data-name="Layer 1" xmlns="http://www.w3.org/2000/svg" viewBox="0 0 300 300"><defs><style>.cls-1,.cls-2{fill:#4a90e2;}.cls-1{opacity:0.2;}.cls-3{fill:#fff;}</style></defs><title>messages</title><circle class="cls-1" cx="150.53" cy="150" r="150"/><circle class="cls-2" cx="150.53" cy="150" r="130"/><path class="cls-3" d="M150.53,88.18c-41.24,0-74.67,27.18-74.67,60.7,0,14.47,6.23,27.76,16.62,38.19a4.29,4.29,0,0,1,1.14,4c-1.16,5-3.87,13-9.93,18.35a1.37,1.37,0,0,0,1,2.4c14.58-.54,22.51-5.25,26.33-8.57a4.33,4.33,0,0,1,4.57-.73,88.29,88.29,0,0,0,35,7.07c41.24,0,74.67-27.18,74.67-60.7S191.77,88.18,150.53,88.18Z"/></svg>